<svg xmlns="http://www.w3.org/2000/svg" viewBox="0 0 512 512"><g fill="none"><path d="M256 60c88 0 152 26 152 62v268c0 36-64 62-152 62s-152-26-152-62V122c0-36 64-62 152-62z" fill="#326690"/><ellipse cx="256" cy="122" rx="152" ry="46" fill="#3b7cad"/><path d="M104 210c0 33 68 58 152 58s152-25 152-58M104 300c0 33 68 58 152 58s152-25 152-58" stroke="#dfeaf2" stroke-width="14" stroke-linecap="round"/><g transform="translate(330 330)"><circle r="70" fill="#f6a821"/><circle r="30" fill="#326690"/><g fill="#f6a821"><rect x="-11" y="-92" width="22" height="34" rx="4"/><rect x="-11" y="58" width="22" height="34" rx="4"/><rect x="-92" y="-11" width="34" height="22" rx="4"/><rect x="58" y="-11" width="34" height="22" rx="4"/><rect x="-72" y="-72" width="22" height="34" rx="4" transform="rotate(45)"/><rect x="50" y="38" width="22" height="34" rx="4" transform="rotate(45)"/><rect x="-72" y="38" width="34" height="22" rx="4" transform="rotate(-45)"/><rect x="38" y="-72" width="34" height="22" rx="4" transform="rotate(-45)"/></g></g></g></svg>
